<svg width="251" height="49" fill="none" xmlns="http://www.w3.org/2000/svg"><path d="M4.874 40.447H2.102v5.56H.855V33.882h1.247v5.44h2.772l4.106-5.44h1.386l-4.504 5.89 4.764 6.237H9.154l-4.28-5.561zm13.024 5.665c-1.201 0-2.292-.266-3.274-.797a6.028 6.028 0 01-2.287-2.218c-.543-.935-.814-1.986-.814-3.153 0-1.166.271-2.217.814-3.153a5.901 5.901 0 012.287-2.2c.982-.543 2.073-.814 3.274-.814s2.281.265 3.24.797a5.864 5.864 0 012.287 2.217c.554.936.831 1.987.831 3.153 0 1.167-.277 2.224-.831 3.17a5.9 5.9 0 01-2.287 2.201c-.959.531-2.039.797-3.24.797zm0-1.144c.959 0 1.825-.213 2.599-.64a4.782 4.782 0 001.819-1.802c.439-.774.658-1.635.658-2.582 0-.947-.22-1.801-.658-2.564a4.625 4.625 0 00-1.82-1.801c-.773-.44-1.64-.659-2.598-.659-.959 0-1.83.22-2.616.659a4.744 4.744 0 00-1.836 1.801c-.44.763-.659 1.617-.659 2.564 0 .947.22 1.808.659 2.582a4.91 4.91 0 001.836 1.801c.785.428 1.657.642 2.616.642zM39.91 33.88v12.128h-1.23v-9.702l-4.764 8.16h-.606l-4.765-8.108v9.65h-1.23V33.88h1.057l5.267 8.991 5.215-8.991h1.056zm17.063 6.047c0 1.605-.572 2.87-1.715 3.794-1.132.913-2.72 1.398-4.764 1.455v1.248h-1.196v-1.248c-2.044-.069-3.638-.56-4.781-1.472-1.132-.913-1.698-2.172-1.698-3.777s.566-2.864 1.698-3.777c1.143-.912 2.737-1.403 4.781-1.472v-1.213h1.196v1.213c2.032.069 3.62.566 4.764 1.49 1.143.912 1.715 2.165 1.715 3.76zm-6.48 4.227c1.675-.07 2.969-.468 3.881-1.195.913-.728 1.369-1.738 1.369-3.032s-.462-2.304-1.386-3.032c-.912-.727-2.2-1.12-3.863-1.178v8.437zm-6.444-4.227c0 1.294.456 2.304 1.369 3.032.924.716 2.217 1.114 3.88 1.195v-8.437c-1.686.07-2.985.468-3.898 1.196-.9.716-1.351 1.72-1.351 3.014zm21.153 6.185c-1.201 0-2.293-.266-3.274-.797a6.027 6.027 0 01-2.287-2.218c-.543-.935-.814-1.986-.814-3.153 0-1.166.271-2.217.814-3.153a5.9 5.9 0 012.287-2.2c.981-.543 2.073-.814 3.274-.814s2.281.265 3.24.797a5.864 5.864 0 012.287 2.217c.554.936.831 1.987.831 3.153 0 1.167-.277 2.224-.832 3.17a5.9 5.9 0 01-2.286 2.201c-.959.531-2.039.797-3.24.797zm0-1.144c.959 0 1.825-.213 2.599-.64a4.782 4.782 0 001.819-1.802c.439-.774.658-1.635.658-2.582 0-.947-.22-1.801-.658-2.564a4.625 4.625 0 00-1.82-1.801c-.773-.44-1.64-.659-2.598-.659-.959 0-1.83.22-2.616.659a4.746 4.746 0 00-1.836 1.801c-.44.763-.659 1.617-.659 2.564 0 .947.22 1.808.659 2.582a4.91 4.91 0 001.836 1.801c.785.428 1.657.642 2.616.642zM79.158 33.88c1.548 0 2.76.37 3.638 1.11.878.739 1.317 1.755 1.317 3.049 0 1.293-.439 2.31-1.317 3.049-.877.727-2.09 1.091-3.638 1.091h-3.257v3.829H74.62V33.88h4.54zm-.034 7.173c1.2 0 2.119-.26 2.754-.78.635-.53.953-1.276.953-2.234 0-.982-.318-1.733-.953-2.253-.635-.53-1.553-.796-2.754-.796H75.9v6.063h3.223zm15.154-6.063h-4.262v11.018h-1.264V34.99H84.49v-1.11h9.788v1.11zm13.974 4.764c.844.173 1.485.514 1.923 1.022.439.497.659 1.15.659 1.958 0 1.05-.376 1.86-1.126 2.425-.74.566-1.831.849-3.275.849h-5.37V33.88h5.041c1.294 0 2.304.266 3.032.797.728.531 1.091 1.3 1.091 2.304 0 .681-.173 1.259-.519 1.732-.347.462-.832.809-1.456 1.04zm-5.925-.381h3.708c.935 0 1.651-.19 2.148-.572.508-.381.762-.936.762-1.663 0-.728-.254-1.282-.762-1.663-.497-.382-1.213-.572-2.148-.572h-3.708v4.47zm4.106 5.613c2.091 0 3.136-.78 3.136-2.339 0-1.525-1.045-2.287-3.136-2.287h-4.106v4.626h4.106zm16.16-4.539h-2.772v5.56h-1.248V33.882h1.248v5.44h2.772l4.105-5.44h1.386l-4.504 5.89 4.764 6.237h-1.472l-4.279-5.561zm15.348 2.321h-6.757l-1.455 3.24h-1.334l5.544-12.127h1.264l5.544 12.127h-1.351l-1.455-3.24zm-.468-1.04l-2.911-6.513-2.91 6.514h5.821zm14.897-1.281h-2.512v5.56h-1.247v-5.56h-2.529l-3.708 5.56h-1.49l4.158-6.253-3.846-5.873h1.386l3.482 5.44h2.547v-5.44h1.247v5.44h2.512l3.5-5.44h1.386l-3.846 5.873 4.158 6.254h-1.49l-3.708-5.561zm18.607 4.453v3.828h-1.195v-2.72h-10.586l-.017 2.72h-1.195l.017-3.829h.606c.797-.046 1.352-.675 1.663-1.888.312-1.225.503-2.957.572-5.198l.139-3.932h8.177v11.018h1.819zm-8.991-6.965c-.058 1.848-.203 3.372-.434 4.573-.219 1.19-.594 1.987-1.126 2.391h7.467v-9.91h-5.804l-.103 2.946zm16.682.277c1.432 0 2.524.323 3.274.97.763.647 1.144 1.594 1.144 2.841 0 1.305-.404 2.299-1.213 2.98-.797.67-1.952 1.005-3.465 1.005h-4.816V33.88h1.265v4.33h3.811zm-.295 6.774c1.121 0 1.97-.248 2.547-.745.589-.497.884-1.23.884-2.2 0-1.86-1.144-2.79-3.431-2.79h-3.516v5.735h3.516zm6.809-11.105h1.265v12.127h-1.265V33.88zm5.345-.001h1.265v10.05l7.761-10.048h1.161v12.127h-1.265v-10.03l-7.761 10.03h-1.161V33.88zm5.059-.883c-.866 0-1.553-.196-2.062-.589-.496-.392-.75-.941-.762-1.646h.953c.012.462.185.826.52 1.092.335.266.785.398 1.351.398.554 0 .999-.133 1.334-.398.346-.266.525-.63.537-1.092h.953c-.012.705-.272 1.254-.78 1.646-.508.393-1.189.59-2.044.59zM220.48 44.9v3.828h-1.195v-2.72H208.7l-.018 2.72h-1.195l.017-3.829h.606c.797-.046 1.352-.675 1.664-1.888.311-1.225.502-2.957.571-5.198l.139-3.932h8.177v11.018h1.819zm-8.991-6.965c-.058 1.848-.202 3.372-.433 4.573-.22 1.19-.595 1.987-1.126 2.391h7.466v-9.91h-5.803l-.104 2.946zm16.925 8.177c-1.201 0-2.293-.266-3.275-.797a6.024 6.024 0 01-2.286-2.218c-.543-.935-.815-1.986-.815-3.153 0-1.166.272-2.217.815-3.153a5.897 5.897 0 012.286-2.2c.982-.543 2.074-.814 3.275-.814s2.281.265 3.239.797a5.856 5.856 0 012.287 2.217c.555.936.832 1.987.832 3.153 0 1.167-.277 2.224-.832 3.17a5.892 5.892 0 01-2.287 2.201c-.958.531-2.038.797-3.239.797zm0-1.144c.958 0 1.825-.213 2.598-.64a4.784 4.784 0 001.82-1.802c.438-.774.658-1.635.658-2.582 0-.947-.22-1.801-.658-2.564a4.627 4.627 0 00-1.82-1.801c-.773-.44-1.64-.659-2.598-.659-.959 0-1.831.22-2.616.659a4.75 4.75 0 00-1.837 1.801c-.438.763-.658 1.617-.658 2.564 0 .947.22 1.808.658 2.582a4.914 4.914 0 001.837 1.801c.785.428 1.657.642 2.616.642zm22.012-11.088v12.128h-1.23v-9.702l-4.764 8.16h-.607l-4.764-8.108v9.65h-1.23V33.88h1.057l5.267 8.991 5.214-8.991h1.057z" fill="#ED7878"/><path d="M17.095 19.096l-.053-8.508-4.054 6.828h-2.774L6.16 10.882v8.214H.426V.426H5.6l6.081 9.949L17.602.427h5.174l.054 18.67h-5.735zm24.535-4.747v4.747H26.107V.426h15.176v4.748h-8.988v2.187h7.895v4.534h-7.895v2.454h9.335zM44.183.427h16.19v4.747H50.37v2.16h4.454c2.276 0 4.018.49 5.227 1.467 1.227.96 1.84 2.356 1.84 4.188 0 1.902-.693 3.396-2.08 4.48-1.387 1.085-3.316 1.627-5.787 1.627h-9.842V.426zm9.415 14.269c.622 0 1.102-.134 1.44-.4.356-.267.534-.65.534-1.147 0-.96-.658-1.44-1.974-1.44H50.37v2.987h3.227zm25.981-.347v4.747H64.056V.426h15.176v4.748h-8.988v2.187h7.894v4.534h-7.894v2.454h9.335zM100.348.427v18.67H94.16V5.306h-4.267l-.053 2.16c-.071 2.668-.285 4.855-.64 6.562-.356 1.707-.978 3.04-1.867 4-.89.943-2.16 1.414-3.814 1.414-.836 0-1.725-.116-2.667-.347l.32-5.04c.23.053.462.08.693.08.658 0 1.156-.267 1.494-.8.355-.534.595-1.245.72-2.134.124-.89.213-2.054.267-3.494l.24-7.281h15.762zm13.353 5.734c2.329 0 4.125.525 5.387 1.574 1.263 1.03 1.894 2.56 1.894 4.587 0 2.187-.72 3.867-2.161 5.04-1.44 1.157-3.413 1.734-5.92 1.734h-9.255V.426h6.187v5.735h3.868zm-1.227 8.535c.64 0 1.164-.196 1.573-.587.409-.409.614-.97.614-1.68 0-1.245-.729-1.867-2.187-1.867h-2.641v4.134h2.641zm33.025-5.388c1.049.374 1.849.934 2.4 1.68.552.73.827 1.627.827 2.694 0 1.672-.666 2.996-2 3.974-1.316.96-3.183 1.44-5.601 1.44h-9.975V.426h9.468c2.312 0 4.099.427 5.361 1.28 1.28.854 1.92 2.055 1.92 3.602 0 .889-.213 1.67-.64 2.347-.409.675-.995 1.226-1.76 1.653zm-8.161-1.707h2.667c1.031 0 1.547-.453 1.547-1.36 0-.942-.516-1.414-1.547-1.414h-2.667v2.774zm3.494 7.095c1.031 0 1.547-.498 1.547-1.494 0-.96-.516-1.44-1.547-1.44h-3.494v2.934h3.494zM150.971.427h6.188v9.708l6.427-9.708h5.921v18.67h-6.187V9.414l-6.401 9.681h-5.948V.426zm37.748 4.881h-5.467v13.788h-6.188V5.308h-5.467V.427h17.122v4.88zm14.314 10.534h-7.095l-1.253 3.254h-6.401l8.161-18.67h6.188l8.161 18.67h-6.508l-1.253-3.254zm-1.734-4.534l-1.813-4.694-1.814 4.695h3.627zm24.26-1.813l5.521 9.601h-7.094l-3.574-6.747h-1.76v6.747h-6.295V.426h6.295v6.962h1.92l3.974-6.961h6.561l-5.548 9.068zm16.063 10.028c-1.973 0-3.751-.409-5.334-1.227-1.582-.835-2.827-1.991-3.734-3.467-.889-1.494-1.333-3.183-1.333-5.067 0-1.885.444-3.565 1.333-5.041.907-1.494 2.152-2.65 3.734-3.467C237.871.418 239.649 0 241.622 0c1.814 0 3.432.32 4.854.96a9.01 9.01 0 013.521 2.774l-3.974 3.547c-1.156-1.458-2.516-2.187-4.081-2.187-1.316 0-2.373.427-3.174 1.28-.8.836-1.2 1.965-1.2 3.388 0 1.422.4 2.56 1.2 3.413.801.836 1.858 1.254 3.174 1.254 1.565 0 2.925-.729 4.081-2.187l3.974 3.547a9.01 9.01 0 01-3.521 2.774c-1.422.64-3.04.96-4.854.96z" fill="#3F5D65"/></svg>