<svg width="20" height="21" fill="none" xmlns="http://www.w3.org/2000/svg"><path d="M19.9 8.637A9.996 9.996 0 00.093 11.355a10.067 10.067 0 008.581 8.608c.445.058.893.087 1.341.087a9.898 9.898 0 005.14-1.429.969.969 0 00-.266-1.767.967.967 0 00-.732.11 8.06 8.06 0 113.464-4.269 1.396 1.396 0 01-1.34.907 1.442 1.442 0 01-1.441-1.441V6.187a.967.967 0 10-1.934 0v.01a4.836 4.836 0 10.348 7.429 3.367 3.367 0 003.027 1.91 3.332 3.332 0 003.168-2.207c.521-1.506.676-3.114.45-4.692zm-9.896 4.32a2.901 2.901 0 110-5.802 2.901 2.901 0 010 5.802z" fill="#EE5C5D"/></svg>