<svg width="18" height="18" fill="none" xmlns="http://www.w3.org/2000/svg"><g clip-path="url(#clip0)"><path d="M16.846 3.23H1.154a1.154 1.154 0 110-2.307h15.692a1.154 1.154 0 110 2.308zm-6.461 6.924H1.154a1.154 1.154 0 110-2.308h9.23a1.154 1.154 0 110 2.308z" fill="#EE5C5D"/><path d="M16.846 10.154H15a1.154 1.154 0 110-2.308h1.846a1.154 1.154 0 110 2.308z" fill="#ED7878"/><path d="M16.846 17.077H1.154a1.154 1.154 0 110-2.308h15.692a1.154 1.154 0 110 2.308z" fill="#EE5C5D"/></g><defs><clipPath id="clip0"><path fill="#fff" d="M0 0h18v18H0z"/></clipPath></defs></svg>